<svg width="21" height="20" viewBox="0 0 21 20" fill="none" xmlns="http://www.w3.org/2000/svg">
<path d="M10.5 0C4.977 0 0.5 4.477 0.5 10C0.5 15.523 4.977 20 10.5 20C16.023 20 20.5 15.523 20.5 10C20.5 4.477 16.023 0 10.5 0ZM10.5 18C6.089 18 2.5 14.411 2.5 10C2.5 5.589 6.089 2 10.5 2C14.911 2 18.5 5.589 18.5 10C18.5 14.411 14.911 18 10.5 18ZM16.5 10C16.5 10.552 16.052 11 15.5 11H11.5V15C11.5 15.552 11.052 16 10.5 16C9.948 16 9.5 15.552 9.5 15V11H5.5C4.948 11 4.5 10.552 4.5 10C4.5 9.448 4.948 9 5.5 9H9.5V5C9.5 4.448 9.948 4 10.5 4C11.052 4 11.5 4.448 11.5 5V9H15.5C16.052 9 16.5 9.448 16.5 10Z" fill="#31A100"/>
</svg>
